<svg width="159" height="97" viewBox="0 0 159 97" fill="none" xmlns="http://www.w3.org/2000/svg">
<path d="M137.86 69.2941C136.163 69.2941 134.514 69.0868 132.935 68.6958C130.732 78.0083 122.513 84.9261 112.711 84.9261C107.698 84.9261 103.098 83.1163 99.5062 80.1021C97.2307 89.3098 89.0613 96.1251 79.3321 96.1251C69.743 96.1251 61.6691 89.5046 59.26 80.4983C55.6532 83.5642 51.0142 85.4084 45.9532 85.4084C36.1512 85.4084 27.9324 78.4906 25.729 69.1781C24.1503 69.5692 22.5012 69.7764 20.8046 69.7764C9.31453 69.7764 -4.72188e-05 60.2707 -4.67062e-05 48.5449C-4.66992e-05 48.3837 0.00172865 48.2229 0.00522876 48.0626C0.00172867 47.9022 -4.66711e-05 47.7414 -4.66641e-05 47.5802C-4.61515e-05 35.8544 9.31454 26.3487 20.8047 26.3487C22.5012 26.3487 24.1503 26.5559 25.729 26.947C27.9324 17.6345 36.1512 10.7167 45.9532 10.7167C51.0142 10.7167 55.6532 12.5609 59.26 15.6268C61.6691 6.62049 69.743 -3.88687e-06 79.3321 -3.46772e-06C89.0613 -3.04244e-06 97.2307 6.81535 99.5062 16.023C103.098 13.0088 107.698 11.199 112.711 11.199C122.513 11.199 130.732 18.1168 132.935 27.4293C134.514 27.0383 136.163 26.831 137.86 26.831C149.35 26.831 158.664 36.3367 158.664 48.0626C158.664 59.7884 149.35 69.2941 137.86 69.2941Z" fill="#E2E2E2"/>
</svg>
