<svg width="108" height="108" viewBox="0 0 108 108" fill="none" xmlns="http://www.w3.org/2000/svg">
<path d="M63.1837 9.18367C63.1837 4.11167 59.072 0 54 0C48.928 0 44.8163 4.11167 44.8163 9.18367V19.2513L39.8422 10.4983C37.3363 6.08855 31.7301 4.5452 27.3204 7.05111C22.9106 9.55703 21.3673 15.1633 23.8732 19.573L29.5334 29.5334L19.573 23.8732C15.1633 21.3673 9.55704 22.9106 7.05112 27.3204C4.54521 31.7301 6.08856 37.3363 10.4983 39.8422L19.2514 44.8163H9.18367C4.11167 44.8163 0 48.928 0 54C0 59.072 4.11167 63.1837 9.18367 63.1837H19.2513L10.4983 68.1578C6.08856 70.6637 4.54522 76.2699 7.05113 80.6796C9.55704 85.0893 15.1633 86.6327 19.573 84.1268L29.5335 78.4665L23.8732 88.427C21.3673 92.8367 22.9106 98.443 27.3204 100.949C31.7301 103.455 37.3363 101.911 39.8422 97.5017L44.8163 88.7486V98.8163C44.8163 103.888 48.928 108 54 108C59.072 108 63.1837 103.888 63.1837 98.8163V88.7487L68.1578 97.5017C70.6637 101.911 76.2699 103.455 80.6796 100.949C85.0894 98.443 86.6327 92.8367 84.1268 88.427L78.4665 78.4665L88.427 84.1268C92.8367 86.6327 98.443 85.0893 100.949 80.6796C103.455 76.2699 101.911 70.6637 97.5017 68.1578L88.7487 63.1837H98.8163C103.888 63.1837 108 59.072 108 54C108 48.928 103.888 44.8163 98.8163 44.8163H88.7486L97.5017 39.8422C101.911 37.3363 103.455 31.7301 100.949 27.3204C98.443 22.9106 92.8367 21.3673 88.427 23.8732L78.4665 29.5334L84.1268 19.573C86.6327 15.1633 85.0894 9.55703 80.6796 7.05111C76.2699 4.5452 70.6637 6.08855 68.1578 10.4983L63.1837 19.2513V9.18367Z" fill="#BDBCFA"/>
</svg>
