<svg width="134" height="134" viewBox="0 0 134 134" fill="none" xmlns="http://www.w3.org/2000/svg">
<path d="M66.5346 133.069C56.0927 133.069 47.5047 125.131 46.4759 114.961C38.5567 121.425 26.8711 120.965 19.4875 113.582C12.104 106.198 11.6443 94.5126 18.1086 86.5934C7.93791 85.5646 -4.56433e-07 76.9766 0 66.5346C8.26446e-07 56.0927 7.93793 47.5047 18.1086 46.4759C11.6443 38.5567 12.104 26.8711 19.4876 19.4875C26.8711 12.104 38.5567 11.6443 46.4759 18.1086C47.5047 7.9379 56.0927 8.26444e-07 66.5346 0C76.9766 -4.56432e-07 85.5646 7.93791 86.5934 18.1086C94.5126 11.6443 106.198 12.1039 113.582 19.4875C120.965 26.8711 121.425 38.5567 114.961 46.4759C125.131 47.5047 133.069 56.0927 133.069 66.5346C133.069 76.9766 125.131 85.5646 114.961 86.5934C121.425 94.5126 120.965 106.198 113.582 113.582C106.198 120.965 94.5126 121.425 86.5934 114.961C85.5646 125.131 76.9766 133.069 66.5346 133.069Z" fill="#FE8F00"/>
</svg>
